<?xml version="1.0" encoding="utf-8"?>
<!-- Generator: Adobe Illustrator 12.0.1, SVG Export Plug-In  -->
<!DOCTYPE svg PUBLIC "-//W3C//DTD SVG 1.1//EN" "http://www.w3.org/Graphics/SVG/1.1/DTD/svg11.dtd" [
	<!ENTITY ns_flows "http://ns.adobe.com/Flows/1.0/">
	<!ENTITY ns_svg "http://www.w3.org/2000/svg">
	<!ENTITY ns_xlink "http://www.w3.org/1999/xlink">
]>
<svg  version="1.1" xmlns="&ns_svg;" xmlns:xlink="&ns_xlink;" xmlns:a="http://ns.adobe.com/AdobeSVGViewerExtensions/3.0/"
	 width="105" height="105" viewBox="-0.08 -0.177 105 105" enable-background="new -0.08 -0.177 105 105" xml:space="preserve">
<defs>
</defs>
<path fill="#184B9C" d="M104.668,52.594C104.668,23.551,80.333,0,52.461,0C23.543,0,0,23.551,0,52.594
	c0,28.652,23.543,52.07,52.461,52.07C81.379,104.664,104.668,81.504,104.668,52.594"/>
<path fill="#FFFFFF" d="M97.473,52.594c0,24.598-20.281,44.875-45.012,44.875c-24.867,0-45.274-20.148-45.274-44.875
	c0-24.984,20.407-45.527,45.274-45.527C77.192,7.066,97.473,27.738,97.473,52.594z"/>
<path fill="#184B9C" d="M90.149,59.527c0-5.363-3.012-8.5-6.805-10.598l-2.879-1.566c-1.699-0.918-3.133-2.355-3.133-4.191
	c0-2.09,1.691-3.531,4.176-3.531c1.703,0,3.266,0.656,4.445,1.18c1.828,0.918,3.016-0.262,3.535-2.223
	c0.66-2.227-0.262-3.008-1.828-3.797c-1.566-0.785-3.797-1.309-6.016-1.309c-6.152,0-11.254,4.059-11.254,10.598
	c0,5.102,2.617,7.977,6.801,10.34l3.012,1.699c1.832,1.043,3.008,2.488,3.008,4.445c0,2.484-2.352,3.664-4.707,3.664
	c-1.836,0-4.059-0.781-5.238-1.309c-1.957-0.918-3.008,0.262-3.664,2.355c-0.656,2.223,0.395,3.141,2.086,3.93
	c1.578,0.777,4.324,1.43,6.816,1.43C84.915,70.645,90.149,66.332,90.149,59.527z"/>
<path fill="#184B9C" d="M67.243,58.223V36.504c0-1.836-1.82-2.746-3.531-2.746c-1.82,0-3.527,0.91-3.527,2.746v20.801
	c0,4.184-1.312,6.934-4.711,6.934c-3.273,0-4.848-2.613-4.848-6.934V36.504c0-1.836-1.953-2.746-3.656-2.746
	c-1.961,0-3.664,0.91-3.664,2.746V58.09c0,8.633,4.32,12.555,12.168,12.555C62.536,70.645,67.243,66.598,67.243,58.223z"/>
<path fill="#184B9C" d="M39.899,59.789c0-6.016-4.188-8.238-6.406-8.633v-0.129c2.617-1.312,5.75-3.797,5.75-8.242
	c0-6.02-5.23-8.898-10.336-8.898h-9.813c-1.82,0-2.875,1.438-2.875,3.008v30.613c0,1.832,1.828,2.754,3.531,2.754h9.29
	C34.672,70.262,39.899,67.246,39.899,59.789z"/>
<path fill="#FFFFFF" d="M31.915,44.48c0,3.406-2.875,4.578-5.883,4.578h-2.75v-9.156h2.75C29.172,39.902,31.915,40.953,31.915,44.48
	z"/>
<path fill="#FFFFFF" d="M32.965,59c0,3.535-1.953,5.238-6.145,5.238h-3.145V54.035h3.145C29.422,54.035,32.965,54.949,32.965,59z"/>
</svg>
